<svg width="22" height="57" viewBox="0 0 22 57" fill="none" xmlns="http://www.w3.org/2000/svg">
<path d="M19.0719 13.1844C17.7654 16.5166 16.8103 20.3492 16.6702 21.003C16.6303 21.1914 16.596 21.6232 16.5663 22.1488C15.3457 21.0178 13.9674 20.1619 12.4278 19.6464C10.2309 18.9113 7.8855 18.9155 5.48613 19.5466C5.87382 18.4895 6.20289 17.416 6.30062 16.6143C6.55231 14.5583 7.25981 6.13932 7.9383 2.46461C8.61603 -1.20994 14.4314 0.0617975 17.8876 1.1633C21.3438 2.26481 21.9758 4.39581 21.7887 5.05982C21.6022 5.72353 20.3785 9.85214 19.0719 13.1844Z" fill="white"/>
<path d="M9.55381 26.5915C5.09334 25.7699 4.65237 28.0147 4.65237 28.0147C3.09662 27.0824 3.70154 25.459 3.70154 25.459C3.70154 25.459 3.24351 24.9164 3.64184 24.1743C3.88581 23.7217 4.63872 22.1068 5.24587 20.4497C7.64524 19.8186 9.9906 19.8144 12.1875 20.5494C13.7272 21.065 15.1052 21.9202 16.326 23.0518C16.2521 24.3506 16.2046 26.2403 16.1596 26.5773C16.0958 27.0505 15.816 27.7341 15.4562 27.8926C15.0972 28.051 14.9544 28.4592 14.9544 28.4592C14.6788 29.5521 13.1739 29.9386 13.1739 29.9386C13.1739 29.9386 14.015 27.413 9.55381 26.5915Z" fill="white"/>
<path d="M2.07176 52.2222C2.01874 52.0758 2.01029 51.9438 2.01029 51.9438C1.80634 47.6525 1.68409 46.7384 0.931897 44.7311C0.179863 42.7246 0.452679 42.4686 0.452679 42.4686C2.71426 37.3889 4.83402 28.2545 4.83402 28.2545C5.16794 27.2805 7.14095 26.4769 9.91718 27.0713C12.7968 27.6888 12.9516 29.3463 12.9516 29.3463L11.2856 43.4978C11.2185 43.9553 10.5416 44.3129 10.5416 44.3129C6.61789 46.414 4.10863 51.3794 3.79412 52.1361C3.47962 52.8928 3.09798 52.7117 3.09798 52.7117L5.65212 40.7159C6.0062 40.5509 6.31698 40.1453 6.4386 39.6164C6.61442 38.8501 6.32764 38.1303 5.79807 38.008C5.2685 37.8857 4.69683 38.4075 4.52101 39.1737C4.38841 39.751 4.51941 40.301 4.81761 40.5903L2.40229 52.1192C2.22059 52.9367 2.22636 52.649 2.07176 52.2222Z" fill="white"/>
<path d="M3.83916 54.6672C4.05143 55.6694 3.41393 56.6545 2.41526 56.8675C1.4166 57.0805 0.434935 56.4408 0.222662 55.4386C0.0103881 54.4364 0.647887 53.4513 1.64655 53.2382C2.64522 53.0252 3.62688 53.665 3.83916 54.6672Z" fill="white"/>
</svg>
